<svg id="Capa_1" enable-background="new 0 0 510.446 510.446" height="512" viewBox="0 0 510.446 510.446" width="512" xmlns="http://www.w3.org/2000/svg"><path d="m372.845 428.313c38.221-51.368 50.232-116.15 32.956-177.733l-32.629-116.311-52.339 54.652-111.266-177.365-111.265 177.365-52.339-54.652-32.629 116.311c-17.276 61.584-5.264 126.365 32.957 177.734 15.546 20.894 34.486 38.216 55.774 51.456h-102.065v30h419.136v-30h-102.065c21.287-13.24 40.227-30.563 55.774-51.457zm-97.017 18.551c-14.542 19.543-36.377 31.391-60.353 32.906h-11.81c-23.98-1.515-45.816-13.363-60.357-32.906-15.544-20.891-20.431-47.232-13.407-72.271l6.118-21.809 19.711 20.583 53.838-85.821 53.838 85.821 19.711-20.583 6.118 21.809c7.024 25.039 2.137 51.38-13.407 72.271zm-205.468-36.458c-32.631-43.855-42.889-99.156-28.142-151.723l18.432-65.703 42.608 44.492 106.309-169.463 106.309 169.462 42.608-44.492 18.432 65.703c14.747 52.566 4.49 107.867-28.141 151.722-11.06 14.865-24.13 27.613-38.695 37.982 12.844-25.15 15.834-54.111 8.039-81.897l-20.315-72.415-29.441 30.742-58.795-93.724-58.795 93.724-29.441-30.742-20.315 72.416c-7.795 27.786-4.804 56.747 8.04 81.897-14.567-10.369-27.637-23.117-38.697-37.981z"/><path d="m510.446 21.889-21.213-21.213-17.893 17.894-17.894-17.894-21.213 21.213 17.894 17.894-17.894 17.893 21.213 21.213 17.894-17.893 17.893 17.893 21.213-21.213-17.893-17.893z"/></svg>