<svg height="512pt" viewBox="0 0 512 512" width="512pt" xmlns="http://www.w3.org/2000/svg"><path d="m256 270c24.8125 0 45-20.1875 45-45s-20.1875-45-45-45-45 20.1875-45 45 20.1875 45 45 45zm0-60c8.269531 0 15 6.730469 15 15s-6.730469 15-15 15-15-6.730469-15-15 6.730469-15 15-15zm0 0"/><path d="m437 90c41.355469 0 75-33.644531 75-75 0-8.285156-6.714844-15-15-15h-30c-24.507812 0-46.304688 11.816406-60 30.050781-13.695312-18.234375-35.492188-30.050781-60-30.050781h-30c-8.285156 0-15 6.714844-15 15 0 41.355469 33.644531 75 75 75h15v30h-15c-8.285156 0-15 6.714844-15 15v26.949219l-97.308594-69.175781c-5.203125-3.699219-12.179687-3.699219-17.382812 0l-179.75 127.785156c-.847656.488281-1.644532 1.054687-2.378906 1.691406l-28.871094 20.523438c-6.75 4.800781-8.332032 14.164062-3.535156 20.917968 4.800781 6.75 14.167968 8.332032 20.917968 3.535156l6.308594-4.484374v107.328124c-17.914062 10.394532-30 29.769532-30 51.929688 0 .851562.019531 1.699219.058594 2.550781-17.492188 6.171875-30.058594 22.871094-30.058594 42.449219 0 24.8125 20.1875 45 45 45h422c24.8125 0 45-20.1875 45-45 0-19.578125-12.566406-36.277344-30.058594-42.449219.039063-.851562.058594-1.699219.058594-2.550781 0-22.160156-12.085938-41.535156-30-51.929688v-107.328124l6.308594 4.484374c6.808594 4.839844 16.15625 3.160157 20.917968-3.535156 4.800782-6.75 3.21875-16.117187-3.535156-20.917968l-23.691406-16.839844v-90.933594c0-8.285156-6.714844-15-15-15h-15v-30zm30-60.011719h12.429688c-6.191407 17.460938-22.871094 30.011719-42.429688 30.011719h-12.429688c6.191407-17.460938 22.871094-30.011719 42.429688-30.011719zm-90 30.011719c-19.558594 0-36.238281-12.539062-42.429688-30h12.429688c19.558594 0 36.238281 12.539062 42.429688 30zm15 90h30v54.605469l-30-21.328125zm-257 332h-90c-8.269531 0-15-6.730469-15-15s6.730469-15 15-15h2.753906c10.34375 0 17.605469-10.257812 14.132813-20.023438-1.269531-3.574218-1.886719-6.835937-1.886719-9.976562 0-16.542969 13.457031-30 30-30s30 13.457031 30 30c0 3.140625-.617188 6.402344-1.886719 9.976562-.019531.058594-.03125.121094-.050781.179688-3.355469 9.824219 4.042969 19.84375 14.183594 19.84375h2.753906c8.269531 0 15 6.730469 15 15s-6.730469 15-15 15zm-45-120v-120.585938l166-118.011718 166 118.011718v120.585938c-33.085938 0-60 26.914062-60 60h-30v-107c0-8.285156-6.714844-15-15-15h-121c-8.285156 0-15 6.714844-15 15v107h-31c0-33.085938-26.914062-60-60-60zm212-32v92h-91v-92zm-124.578125 152c1.664063-4.695312 2.578125-9.742188 2.578125-15s-.914062-10.316406-2.578125-15.011719h157.15625c-1.664063 4.695313-2.578125 9.753907-2.578125 15.011719s.914062 10.304688 2.578125 15zm274.578125-60c0 3.140625-.617188 6.402344-1.886719 9.976562-1.632812 4.589844-.933593 9.691407 1.878907 13.671876 2.808593 3.984374 7.378906 6.351562 12.253906 6.351562h2.753906c8.269531 0 15 6.730469 15 15s-6.730469 15-15 15h-90c-8.269531 0-15-6.730469-15-15s6.730469-15 15-15h2.753906c10.101563 0 17.554688-9.980469 14.183594-19.84375-.019531-.058594-.03125-.121094-.050781-.179688-1.269531-3.574218-1.886719-6.835937-1.886719-9.976562 0-16.542969 13.457031-30 30-30s30 13.457031 30 30zm0 0"/></svg>